{"accessors" : [{"bufferView" : 0, "byteOffset" : 0, "componentType" : 5123, "count" : 41460, "type" : "SCALAR", "max" : [38701], "min" : [0]}, {"bufferView" : 1, "byteOffset" : 0, "componentType" : 5126, "count" : 38702, "type" : "VEC3", "max" : [49.93938446044922, 5, 49.956722259521484], "min" : [-49.97484588623047, -5, -49.91752624511719], "name" : "POSITION"}, {"bufferView" : 1, "byteOffset" : 12, "componentType" : 5126, "count" : 38702, "type" : "VEC3", "max" : [1.0000044107437134, 1.0000044107437134, 1.0000044107437134], "min" : [-1.0000044107437134, -1.0000044107437134, -1.0000044107437134], "name" : "NORMAL"}], "asset" : {"generator" : "Aspose.3D 22.10", "version" : "2.0"}, "buffers" : [{"uri" : "data:application/octet-stream;base64,", "byteLength" : 1077968}], "bufferViews" : [{"buffer" : 0, "byteOffset" : 0, "byteLength" : 82920, "target" : 34963}, {"buffer" : 0, "byteOffset" : 82924, "byteLength" : 995040, "byteStride" : 24, "target" : 34962}], "materials" : [{"pbrMetallicRoughness" : {"baseColorFactor" : [0.9843137860298157, 0.847058892250061, 0.1568627506494522, 1], "metallicFactor" : 0, "roughnessFactor" : 0.40000003576278687}, "emissiveFactor" : [0, 0, 0], "alphaMode" : "OPAQUE", "doubleSided" : true}], "meshes" : [{"primitives" : [{"attributes" : {"POSITION" : 1, "NORMAL" : 2}, "indices" : 0, "material" : 0, "mode" : 4}]}], "nodes" : [{"mesh" : 0, "name" : "imagetostl_mesh"}], "scene" : 0, "scenes" : [{"nodes" : [0]}]}